<?xml version="1.0" encoding="UTF-8"?>
<!DOCTYPE svg PUBLIC "-//W3C//DTD SVG 1.1//EN" "http://www.w3.org/Graphics/SVG/1.1/DTD/svg11.dtd">
<!-- Creator: CorelDRAW X8 -->
<svg xmlns="http://www.w3.org/2000/svg" xml:space="preserve" width="20cm" height="20cm" version="1.1" style="shape-rendering:geometricPrecision; text-rendering:geometricPrecision; image-rendering:optimizeQuality; fill-rule:evenodd; clip-rule:evenodd"
viewBox="0 0 20000 20000"
 xmlns:xlink="http://www.w3.org/1999/xlink">
 <defs>
  <style type="text/css">
   <![CDATA[
    .str0 {stroke:#2B2A29;stroke-width:7.62}
    .fil0 {fill:#2B2A29;fill-rule:nonzero}
   ]]>
  </style>
 </defs>
 <g id="Layer_x0020_1">
  <metadata id="CorelCorpID_0Corel-Layer"/>
  <path class="fil0 str0" d="M5522 13591l4577 -3196 4869 3400 -4869 3401 -4869 -3401 292 -204zm4577 -2588l-4000 2792 4000 2793 3999 -2793 -3999 -2792zm-147 -2363l4577 -3196 4870 3400 -4870 3401 -4869 -3401 292 -204zm4577 -2588l-3999 2792 3999 2793 4000 -2793 -4000 -2792zm-13511 2579l4577 -3196 4870 3400 -4870 3401 -4869 -3401 292 -204zm4577 -2588l-3999 2792 3999 2793 4000 -2793 -4000 -2792zm-4577 4484l4577 -3196 4870 3401 -4870 3400 -4869 -3400 292 -205zm4577 -2588l-3999 2793 3999 2792 4000 -2792 -4000 -2793zm-73 7548l4577 -3196 4869 3401 -4869 3400 -4869 -3400 292 -205zm4577 -2588l-4000 2793 4000 2792 3999 -2792 -3999 -2793zm-147 -2363l4577 -3196 4870 3401 -4870 3400 -4869 -3400 292 -205zm4577 -2588l-3999 2793 3999 2792 4000 -2792 -4000 -2793zm-9080 -4268l4577 -3196 4869 3400 -4869 3401 -4869 -3401 292 -204zm4577 -2588l-4000 2792 4000 2793 3999 -2793 -3999 -2792zm-4577 4485l4577 -3197 4869 3401 -4869 3400 -4869 -3400 292 -204zm4577 -2589l-4000 2793 4000 2792 3999 -2792 -3999 -2793zm9373 5862l0 1897 -500 0 0 -1897 500 0zm-9087 -64l0 1896 -500 0 0 -1896 500 0zm-9082 38l0 1896 -500 0 0 -1896 500 0zm4497 4970l0 1896 -500 0 0 -1896 500 0zm9240 2l0 1896 -500 0 0 -1896 500 0zm-76 -9907l0 1896 -500 0 0 -1896 500 0zm-9232 -5l0 1896 -500 0 0 -1896 500 0z"/>
 </g>
</svg>
